# xmcd
#
# Track frame offsets:
#	151
#	16786
#	36187
#	51448
#	73948
#	88683
#	108008
#	133569
#	160768
#	188894
#	204455
#	217380
#	237317
#	269241
#
# Disc length: 3923 seconds
#
# Revision: 1
# Processed by: cddbd v1.5.2PL0 Copyright (c) Steve Scherf et al.
# Submitted via: audiograbber 1.83.01
#
DISCID=d20f510e
DTITLE=The Bad Luck and Trouble Blues Band - Shouted
DYEAR=2002
DGENRE=Blues
TTITLE0=Paint my mailbox blue
TTITLE1=Good morning little schoolgirl
TTITLE2=Hey Bartender
TTITLE3=Low Rider
TTITLE4=A little bit of your love
TTITLE5=Howlin´ for my darling
TTITLE6=Heartattack and Vine
TTITLE7=Troubles Blues
TTITLE8=Rock me Baby
TTITLE9=Mellow down easy
TTITLE10=I put a spell on you
TTITLE11=Tobacco Road
TTITLE12=Rivers of whiskey
TTITLE13=Rockin´ at midnight
EXTD=
EXTT0=
EXTT1=
EXTT2=
EXTT3=
EXTT4=
EXTT5=
EXTT6=
EXTT7=
EXTT8=
EXTT9=
EXTT10=
EXTT11=
EXTT12=
EXTT13=
PLAYORDER=
